<svg xmlns="http://www.w3.org/2000/svg" xmlns:xlink="http://www.w3.org/1999/xlink" width="500" zoomAndPan="magnify" viewBox="0 0 375 374.999991" height="500" preserveAspectRatio="xMidYMid meet" version="1.2"><defs/><g id="e7a8931263"><g style="fill:#000000;fill-opacity:1;"><g transform="translate(78.675279, 271.09463)"><path style="stroke:none" d="M 87.1875 -135.984375 C 87.039062 -134.253906 86.894531 -132.628906 86.75 -131.109375 C 86.613281 -129.585938 86.472656 -128.175781 86.328125 -126.875 C 86.035156 -124.414062 85.671875 -121.882812 85.234375 -119.28125 C 84.804688 -116.6875 84.445312 -114.085938 84.15625 -111.484375 C 84.007812 -110.753906 83.9375 -110.097656 83.9375 -109.515625 C 83.9375 -108.941406 83.9375 -108.296875 83.9375 -107.578125 C 83.789062 -107.140625 83.71875 -106.664062 83.71875 -106.15625 C 83.71875 -105.65625 83.71875 -105.191406 83.71875 -104.765625 C 83.71875 -101.140625 83.679688 -97.519531 83.609375 -93.90625 C 83.535156 -90.289062 83.5 -86.675781 83.5 -83.0625 C 83.351562 -78.875 83.242188 -74.789062 83.171875 -70.8125 C 83.097656 -66.832031 82.921875 -62.894531 82.640625 -59 C 82.785156 -59.144531 82.859375 -59.359375 82.859375 -59.640625 C 82.859375 -59.929688 82.925781 -60.222656 83.0625 -60.515625 C 83.0625 -58.773438 82.914062 -56.785156 82.625 -54.546875 C 82.34375 -52.304688 82.054688 -50.03125 81.765625 -47.71875 C 81.617188 -46.851562 81.617188 -46.054688 81.765625 -45.328125 C 81.910156 -44.609375 81.910156 -43.882812 81.765625 -43.15625 C 81.617188 -42.582031 81.4375 -41.894531 81.21875 -41.09375 C 81.007812 -40.300781 80.757812 -39.398438 80.46875 -38.390625 L 79.171875 -34.703125 C 79.171875 -34.265625 79.023438 -33.90625 78.734375 -33.625 L 78.296875 -32.75 L 78.296875 -32.53125 L 77.859375 -32.09375 L 77.4375 -31.234375 C 77.289062 -30.941406 77.144531 -30.578125 77 -30.140625 C 76.851562 -29.710938 76.632812 -29.28125 76.34375 -28.84375 L 74.609375 -26.25 C 73.597656 -24.363281 72.476562 -22.550781 71.25 -20.8125 C 70.019531 -19.082031 68.679688 -17.347656 67.234375 -15.609375 C 64.628906 -12.578125 61.085938 -9.613281 56.609375 -6.71875 C 55.453125 -6 54.257812 -5.347656 53.03125 -4.765625 C 51.800781 -4.191406 50.460938 -3.613281 49.015625 -3.03125 C 47.566406 -2.75 46.117188 -2.425781 44.671875 -2.0625 C 43.234375 -1.695312 41.71875 -1.441406 40.125 -1.296875 C 36.945312 -1.015625 33.910156 -1.234375 31.015625 -1.953125 C 30.578125 -2.097656 30.175781 -2.207031 29.8125 -2.28125 C 29.457031 -2.351562 29.132812 -2.390625 28.84375 -2.390625 L 26.671875 -3.03125 C 26.097656 -3.320312 25.484375 -3.578125 24.828125 -3.796875 C 24.179688 -4.015625 23.5 -4.269531 22.78125 -4.5625 C 21.613281 -5.132812 20.488281 -5.742188 19.40625 -6.390625 C 18.320312 -7.046875 17.273438 -7.660156 16.265625 -8.234375 L 13.453125 -10.40625 C 12.867188 -10.695312 12.394531 -11.054688 12.03125 -11.484375 C 11.675781 -11.921875 11.28125 -12.210938 10.84375 -12.359375 C 10.988281 -12.210938 11.097656 -12.140625 11.171875 -12.140625 C 11.242188 -12.140625 11.351562 -12 11.5 -11.71875 C 11.644531 -11.570312 11.785156 -11.460938 11.921875 -11.390625 C 12.066406 -11.316406 12.210938 -11.132812 12.359375 -10.84375 C 12.359375 -10.695312 12.578125 -10.410156 13.015625 -9.984375 C 13.585938 -9.691406 13.945312 -9.398438 14.09375 -9.109375 C 13.945312 -9.253906 13.765625 -9.398438 13.546875 -9.546875 C 13.335938 -9.691406 13.160156 -9.765625 13.015625 -9.765625 C 12.578125 -10.191406 12.285156 -10.550781 12.140625 -10.84375 L 10.40625 -12.796875 C 10.125 -13.234375 9.617188 -13.8125 8.890625 -14.53125 C 8.597656 -14.675781 8.164062 -15.035156 7.59375 -15.609375 L 6.296875 -16.921875 C 5.859375 -17.203125 5.492188 -17.5625 5.203125 -18 L 2.8125 -22.5625 C 2.8125 -23.570312 3.320312 -23.929688 4.34375 -23.640625 C 4.195312 -24.222656 4.160156 -24.910156 4.234375 -25.703125 C 4.304688 -26.492188 3.976562 -27.46875 3.25 -28.625 C 3.539062 -28.914062 3.90625 -28.914062 4.34375 -28.625 C 4.625 -28.476562 4.835938 -28.296875 4.984375 -28.078125 C 5.128906 -27.867188 5.273438 -27.691406 5.421875 -27.546875 C 5.273438 -28.265625 5.09375 -29.054688 4.875 -29.921875 C 4.664062 -30.796875 4.628906 -31.519531 4.765625 -32.09375 C 4.046875 -33.832031 3.359375 -35.457031 2.703125 -36.96875 C 2.054688 -38.488281 1.515625 -40.191406 1.078125 -42.078125 C 1.222656 -41.929688 1.332031 -41.675781 1.40625 -41.3125 C 1.476562 -40.957031 1.585938 -40.78125 1.734375 -40.78125 C 1.734375 -40.925781 1.695312 -41.101562 1.625 -41.3125 C 1.550781 -41.53125 1.585938 -41.710938 1.734375 -41.859375 C 1.878906 -40.847656 2.3125 -39.835938 3.03125 -38.828125 C 3.175781 -39.109375 3.320312 -39.46875 3.46875 -39.90625 C 3.613281 -40.34375 3.757812 -40.632812 3.90625 -40.78125 C 4.476562 -38.894531 5.234375 -36.972656 6.171875 -35.015625 C 7.117188 -33.066406 8.097656 -31.15625 9.109375 -29.28125 C 9.398438 -30.289062 9.253906 -31.484375 8.671875 -32.859375 C 8.097656 -34.234375 7.519531 -35.785156 6.9375 -37.515625 C 6.21875 -39.253906 5.566406 -41.0625 4.984375 -42.9375 C 4.410156 -44.820312 3.976562 -46.488281 3.6875 -47.9375 C 4.550781 -45.625 5.273438 -43.238281 5.859375 -40.78125 C 6.003906 -41.5 5.859375 -42.65625 5.421875 -44.25 C 5.710938 -44.820312 5.859375 -45.539062 5.859375 -46.40625 C 5.859375 -47.28125 5.859375 -48.222656 5.859375 -49.234375 C 6.285156 -49.671875 6.570312 -49.597656 6.71875 -49.015625 C 6.71875 -49.304688 6.679688 -49.664062 6.609375 -50.09375 C 6.535156 -50.53125 6.5 -50.96875 6.5 -51.40625 C 6.5 -52.5625 6.644531 -53.210938 6.9375 -53.359375 C 6.9375 -54.515625 7.007812 -55.164062 7.15625 -55.3125 C 7.15625 -55.59375 7.226562 -55.804688 7.375 -55.953125 C 7.519531 -56.097656 7.59375 -56.171875 7.59375 -56.171875 C 8.164062 -56.171875 8.597656 -55.59375 8.890625 -54.4375 L 8.890625 -56.390625 C 8.890625 -56.679688 8.890625 -57.003906 8.890625 -57.359375 C 8.890625 -57.722656 8.890625 -58.125 8.890625 -58.5625 L 9.546875 -63.109375 C 9.835938 -63.109375 9.984375 -63.179688 9.984375 -63.328125 C 9.984375 -63.472656 10.050781 -63.617188 10.1875 -63.765625 C 10.050781 -63.046875 10.125 -62.539062 10.40625 -62.25 C 10.84375 -65.132812 11.785156 -67.738281 13.234375 -70.0625 C 13.378906 -69.769531 13.488281 -69.40625 13.5625 -68.96875 C 13.632812 -68.539062 13.8125 -68.253906 14.09375 -68.109375 C 14.09375 -67.960938 14.054688 -67.742188 13.984375 -67.453125 C 13.910156 -67.160156 13.875 -66.941406 13.875 -66.796875 C 13.875 -66.796875 14.019531 -67.085938 14.3125 -67.671875 C 14.601562 -68.242188 14.75 -68.675781 14.75 -68.96875 C 14.894531 -69.257812 15.113281 -69.550781 15.40625 -69.84375 C 15.40625 -70.125 15.4375 -70.335938 15.5 -70.484375 C 15.570312 -70.628906 15.609375 -70.773438 15.609375 -70.921875 C 15.898438 -70.921875 15.898438 -70.5625 15.609375 -69.84375 C 15.609375 -69.40625 15.46875 -68.898438 15.1875 -68.328125 C 15.332031 -68.328125 15.546875 -68.613281 15.828125 -69.1875 L 16.265625 -69.625 C 16.265625 -69.914062 16.410156 -70.203125 16.703125 -70.484375 L 16.484375 -69.625 C 16.484375 -69.476562 16.554688 -69.40625 16.703125 -69.40625 C 16.703125 -69.257812 16.554688 -69.039062 16.265625 -68.75 C 16.265625 -68.601562 16.117188 -68.242188 15.828125 -67.671875 C 16.265625 -68.242188 16.445312 -68.457031 16.375 -68.3125 C 16.300781 -68.175781 16.117188 -67.742188 15.828125 -67.015625 L 16.265625 -67.015625 C 16.410156 -67.160156 16.554688 -67.523438 16.703125 -68.109375 C 16.992188 -68.679688 17.140625 -69.039062 17.140625 -69.1875 C 17.421875 -69.332031 17.671875 -69.441406 17.890625 -69.515625 C 18.109375 -69.585938 18.289062 -69.695312 18.4375 -69.84375 L 17.78125 -68.75 C 17.925781 -68.75 18.035156 -68.859375 18.109375 -69.078125 C 18.179688 -69.296875 18.289062 -69.332031 18.4375 -69.1875 C 18.289062 -69.039062 18.253906 -68.859375 18.328125 -68.640625 C 18.398438 -68.429688 18.363281 -68.179688 18.21875 -67.890625 C 18.507812 -68.179688 18.691406 -68.46875 18.765625 -68.75 C 18.835938 -69.039062 19.015625 -69.40625 19.296875 -69.84375 C 19.441406 -69.695312 19.296875 -69.367188 18.859375 -68.859375 C 18.429688 -68.359375 18.289062 -67.960938 18.4375 -67.671875 C 18.875 -68.109375 19.234375 -68.757812 19.515625 -69.625 L 19.953125 -70.0625 L 19.953125 -70.484375 L 20.171875 -70.703125 L 21.03125 -71.578125 C 21.03125 -71.578125 20.992188 -71.539062 20.921875 -71.46875 C 20.859375 -71.394531 20.828125 -71.285156 20.828125 -71.140625 C 20.535156 -70.847656 20.390625 -70.703125 20.390625 -70.703125 C 20.390625 -70.554688 20.351562 -70.445312 20.28125 -70.375 C 20.207031 -70.300781 20.171875 -70.195312 20.171875 -70.0625 C 20.023438 -70.0625 19.953125 -69.914062 19.953125 -69.625 C 19.953125 -69.476562 20.0625 -69.367188 20.28125 -69.296875 C 20.5 -69.222656 20.460938 -69.039062 20.171875 -68.75 C 20.316406 -68.894531 20.460938 -69.003906 20.609375 -69.078125 C 20.753906 -69.148438 20.96875 -69.257812 21.25 -69.40625 C 21.394531 -69.550781 21.46875 -69.625 21.46875 -69.625 C 21.46875 -69.625 21.539062 -69.695312 21.6875 -69.84375 C 21.832031 -69.695312 22.050781 -69.695312 22.34375 -69.84375 C 22.488281 -69.84375 22.5625 -69.878906 22.5625 -69.953125 C 22.5625 -70.023438 22.5625 -70.0625 22.5625 -70.0625 L 23.203125 -70.703125 C 23.492188 -70.554688 23.53125 -70.484375 23.3125 -70.484375 C 23.09375 -70.484375 22.914062 -70.34375 22.78125 -70.0625 C 22.914062 -69.914062 23.09375 -69.984375 23.3125 -70.265625 C 23.53125 -70.554688 23.710938 -70.628906 23.859375 -70.484375 C 23.710938 -70.203125 23.492188 -69.914062 23.203125 -69.625 L 22.984375 -69.40625 L 22.78125 -69.40625 L 22.78125 -69.1875 C 22.78125 -69.039062 22.742188 -68.929688 22.671875 -68.859375 C 22.597656 -68.785156 22.5625 -68.75 22.5625 -68.75 L 22.34375 -68.109375 L 21.25 -65.71875 C 21.101562 -64.851562 20.921875 -63.984375 20.703125 -63.109375 C 20.492188 -62.242188 20.390625 -61.234375 20.390625 -60.078125 L 21.46875 -64.421875 C 21.757812 -64.992188 22.015625 -65.53125 22.234375 -66.03125 C 22.453125 -66.539062 22.773438 -66.867188 23.203125 -67.015625 C 23.054688 -66.722656 22.875 -66.359375 22.65625 -65.921875 C 22.445312 -65.492188 22.195312 -65.066406 21.90625 -64.640625 C 21.90625 -64.203125 21.832031 -63.835938 21.6875 -63.546875 L 21.6875 -62.25 C 21.539062 -61.664062 21.46875 -61.046875 21.46875 -60.390625 C 21.46875 -59.742188 21.46875 -59.0625 21.46875 -58.34375 C 21.613281 -57.757812 21.722656 -57.035156 21.796875 -56.171875 C 21.867188 -55.304688 21.90625 -54.507812 21.90625 -53.78125 C 22.34375 -50.75 23.140625 -47.570312 24.296875 -44.25 C 25.015625 -42.65625 25.769531 -41.171875 26.5625 -39.796875 C 27.363281 -38.421875 28.269531 -37.15625 29.28125 -36 C 29.425781 -35.851562 29.785156 -35.78125 30.359375 -35.78125 C 29.640625 -36.507812 28.914062 -37.453125 28.1875 -38.609375 C 27.46875 -39.765625 26.75 -40.921875 26.03125 -42.078125 C 24.726562 -44.535156 23.710938 -47.210938 22.984375 -50.109375 C 22.847656 -50.828125 22.707031 -51.546875 22.5625 -52.265625 C 22.414062 -52.992188 22.269531 -53.644531 22.125 -54.21875 C 21.976562 -54.945312 21.90625 -55.671875 21.90625 -56.390625 C 21.90625 -57.109375 21.90625 -57.757812 21.90625 -58.34375 C 22.195312 -61.09375 22.847656 -63.191406 23.859375 -64.640625 L 23.859375 -63.984375 C 23.859375 -63.546875 23.785156 -63.179688 23.640625 -62.890625 C 23.640625 -62.460938 23.566406 -62.25 23.421875 -62.25 C 23.421875 -61.664062 23.347656 -61.300781 23.203125 -61.15625 C 22.773438 -57.113281 23.210938 -52.78125 24.515625 -48.15625 C 25.378906 -45.976562 26.351562 -43.878906 27.4375 -41.859375 C 28.519531 -39.835938 29.710938 -38.03125 31.015625 -36.4375 C 31.453125 -35.71875 32.175781 -35.140625 33.1875 -34.703125 C 33.613281 -34.554688 34.046875 -34.445312 34.484375 -34.375 C 34.921875 -34.300781 35.28125 -34.117188 35.5625 -33.828125 L 36.65625 -33.40625 C 36.945312 -33.257812 37.234375 -33.1875 37.515625 -33.1875 L 38.609375 -33.1875 C 38.898438 -33.332031 39.1875 -33.472656 39.46875 -33.609375 C 39.757812 -33.753906 40.195312 -34.046875 40.78125 -34.484375 C 41.207031 -34.921875 41.671875 -35.425781 42.171875 -36 C 42.679688 -36.582031 43.226562 -37.234375 43.8125 -37.953125 C 44.53125 -38.679688 45.109375 -39.441406 45.546875 -40.234375 C 45.984375 -41.023438 46.488281 -41.925781 47.0625 -42.9375 L 47.5 -43.375 L 47.9375 -44.25 L 48.578125 -45.546875 L 49.671875 -47.71875 L 49.453125 -47.28125 L 49.671875 -47.5 L 49.671875 -47.71875 L 49.890625 -47.9375 L 49.890625 -48.578125 L 50.109375 -48.796875 L 50.109375 -49.015625 L 50.3125 -49.453125 L 50.3125 -50.109375 C 50.457031 -50.535156 50.53125 -50.960938 50.53125 -51.390625 C 50.53125 -51.828125 50.601562 -52.335938 50.75 -52.921875 C 51.039062 -54.078125 51.257812 -55.234375 51.40625 -56.390625 C 51.550781 -57.546875 51.695312 -58.703125 51.84375 -59.859375 C 52.125 -62.316406 52.375 -64.8125 52.59375 -67.34375 C 52.8125 -69.875 52.921875 -72.515625 52.921875 -75.265625 C 53.066406 -77.722656 53.210938 -80.320312 53.359375 -83.0625 C 53.503906 -85.8125 53.644531 -88.5625 53.78125 -91.3125 C 53.925781 -92.03125 54 -92.75 54 -93.46875 C 54 -94.195312 54 -94.925781 54 -95.65625 L 54 -98.6875 C 53.71875 -102.445312 53.429688 -106.382812 53.140625 -110.5 C 52.847656 -114.625 52.628906 -118.640625 52.484375 -122.546875 C 52.484375 -124.566406 52.445312 -126.515625 52.375 -128.390625 C 52.300781 -130.273438 52.191406 -132.15625 52.046875 -134.03125 L 51.84375 -133.828125 C 51.695312 -133.960938 51.515625 -134.101562 51.296875 -134.25 C 51.078125 -134.394531 50.894531 -134.539062 50.75 -134.6875 C 50.75 -134.832031 50.710938 -134.90625 50.640625 -134.90625 C 50.566406 -134.90625 50.53125 -134.90625 50.53125 -134.90625 C 50.382812 -134.757812 50.09375 -134.6875 49.65625 -134.6875 C 49.226562 -134.6875 48.796875 -134.613281 48.359375 -134.46875 C 48.222656 -134.46875 48.15625 -134.394531 48.15625 -134.25 C 48.15625 -134.101562 48.007812 -133.960938 47.71875 -133.828125 C 47.570312 -133.828125 47.460938 -133.859375 47.390625 -133.921875 C 47.316406 -133.992188 47.207031 -134.03125 47.0625 -134.03125 C 46.914062 -134.03125 46.804688 -133.992188 46.734375 -133.921875 C 46.660156 -133.859375 46.554688 -133.828125 46.421875 -133.828125 C 46.273438 -133.828125 46.128906 -133.859375 45.984375 -133.921875 C 45.835938 -133.992188 45.617188 -134.03125 45.328125 -134.03125 C 45.035156 -133.894531 44.75 -133.828125 44.46875 -133.828125 C 44.320312 -133.679688 44.140625 -133.644531 43.921875 -133.71875 C 43.703125 -133.789062 43.519531 -133.828125 43.375 -133.828125 C 42.945312 -133.828125 42.550781 -133.644531 42.1875 -133.28125 C 41.820312 -132.914062 41.351562 -132.953125 40.78125 -133.390625 C 40.34375 -133.242188 39.941406 -133.132812 39.578125 -133.0625 C 39.222656 -132.988281 38.898438 -132.804688 38.609375 -132.515625 C 38.316406 -132.367188 38.0625 -132.222656 37.84375 -132.078125 C 37.625 -131.941406 37.375 -131.875 37.09375 -131.875 C 36.945312 -131.875 36.835938 -131.910156 36.765625 -131.984375 C 36.691406 -132.054688 36.507812 -132.09375 36.21875 -132.09375 C 35.78125 -131.945312 35.304688 -131.726562 34.796875 -131.4375 C 34.296875 -131.144531 33.757812 -131.144531 33.1875 -131.4375 C 32.320312 -130.851562 31.34375 -130.632812 30.25 -130.78125 C 29.164062 -130.925781 28.410156 -130.421875 27.984375 -129.265625 C 28.265625 -128.398438 28.191406 -127.96875 27.765625 -127.96875 C 27.472656 -127.820312 27.109375 -127.96875 26.671875 -128.40625 C 26.242188 -128.40625 25.703125 -128.40625 25.046875 -128.40625 C 24.398438 -128.40625 23.859375 -128.257812 23.421875 -127.96875 C 23.273438 -127.820312 23.164062 -127.640625 23.09375 -127.421875 C 23.019531 -127.203125 22.84375 -127.019531 22.5625 -126.875 C 22.269531 -126.738281 21.941406 -126.8125 21.578125 -127.09375 C 21.210938 -127.382812 20.890625 -127.457031 20.609375 -127.3125 C 20.460938 -127.164062 20.28125 -126.984375 20.0625 -126.765625 C 19.84375 -126.554688 19.660156 -126.453125 19.515625 -126.453125 C 18.941406 -126.453125 18.4375 -126.8125 18 -127.53125 C 17.851562 -127.53125 17.78125 -127.492188 17.78125 -127.421875 C 17.78125 -127.347656 17.707031 -127.3125 17.5625 -127.3125 C 17.132812 -127.894531 16.484375 -128.222656 15.609375 -128.296875 C 14.742188 -128.367188 13.953125 -128.332031 13.234375 -128.1875 C 13.085938 -128.039062 12.941406 -128.003906 12.796875 -128.078125 C 12.648438 -128.148438 12.503906 -128.1875 12.359375 -128.1875 C 11.492188 -128.332031 10.660156 -128.691406 9.859375 -129.265625 C 9.066406 -129.847656 8.3125 -130.425781 7.59375 -131 C 7.59375 -131.144531 7.554688 -131.253906 7.484375 -131.328125 C 7.410156 -131.398438 7.375 -131.4375 7.375 -131.4375 C 6.9375 -131.726562 6.535156 -132.015625 6.171875 -132.296875 C 5.816406 -132.585938 5.492188 -132.804688 5.203125 -132.953125 C 5.203125 -133.242188 5.09375 -133.460938 4.875 -133.609375 C 4.664062 -133.753906 4.5625 -133.96875 4.5625 -134.25 C 4.414062 -134.6875 4.160156 -135.050781 3.796875 -135.34375 C 3.429688 -135.632812 3.101562 -135.921875 2.8125 -136.203125 C 2.675781 -136.492188 2.5 -136.816406 2.28125 -137.171875 C 2.0625 -137.535156 1.804688 -137.863281 1.515625 -138.15625 C 1.222656 -138.59375 1.003906 -139.132812 0.859375 -139.78125 C 0.722656 -140.4375 0.507812 -140.976562 0.21875 -141.40625 C 0.21875 -142.425781 0.109375 -143.515625 -0.109375 -144.671875 C -0.328125 -145.828125 -0.582031 -146.984375 -0.875 -148.140625 C -1.007812 -148.140625 -1.078125 -148.28125 -1.078125 -148.5625 C -0.796875 -149.289062 -0.722656 -150.015625 -0.859375 -150.734375 C -1.003906 -151.460938 -1.007812 -152.113281 -0.875 -152.6875 C -0.582031 -152.976562 -0.363281 -153.269531 -0.21875 -153.5625 C -0.0703125 -153.988281 0 -154.421875 0 -154.859375 C 0 -155.296875 0.0703125 -155.65625 0.21875 -155.9375 C 1.226562 -156.664062 1.984375 -157.644531 2.484375 -158.875 C 2.992188 -160.101562 3.6875 -161.222656 4.5625 -162.234375 C 4.5625 -162.234375 4.59375 -162.234375 4.65625 -162.234375 C 4.726562 -162.234375 4.835938 -162.304688 4.984375 -162.453125 C 5.273438 -162.742188 5.632812 -163.03125 6.0625 -163.3125 C 6.5 -163.601562 6.863281 -163.96875 7.15625 -164.40625 C 7.445312 -164.976562 7.804688 -165.335938 8.234375 -165.484375 C 8.671875 -165.628906 9.179688 -165.773438 9.765625 -165.921875 C 9.910156 -166.066406 10.015625 -166.175781 10.078125 -166.25 C 10.148438 -166.320312 10.332031 -166.429688 10.625 -166.578125 C 11.488281 -166.710938 12.285156 -167.070312 13.015625 -167.65625 C 13.453125 -167.800781 13.882812 -167.835938 14.3125 -167.765625 C 14.75 -167.691406 15.113281 -167.726562 15.40625 -167.875 C 15.6875 -167.875 15.9375 -167.945312 16.15625 -168.09375 C 16.375 -168.238281 16.554688 -168.3125 16.703125 -168.3125 C 16.992188 -168.457031 17.316406 -168.347656 17.671875 -167.984375 C 18.035156 -167.617188 18.363281 -167.363281 18.65625 -167.21875 C 19.082031 -167.65625 19.515625 -167.800781 19.953125 -167.65625 C 20.242188 -167.363281 20.425781 -167.035156 20.5 -166.671875 C 20.570312 -166.316406 20.820312 -165.992188 21.25 -165.703125 C 21.6875 -165.554688 22.082031 -165.988281 22.4375 -167 C 22.800781 -168.019531 23.203125 -167.945312 23.640625 -166.78125 C 24.222656 -166.207031 24.910156 -166.03125 25.703125 -166.25 C 26.492188 -166.46875 27.179688 -166.578125 27.765625 -166.578125 C 28.335938 -166.578125 28.84375 -166.539062 29.28125 -166.46875 C 29.71875 -166.394531 30.222656 -166.359375 30.796875 -166.359375 C 31.085938 -166.503906 31.484375 -166.644531 31.984375 -166.78125 C 32.492188 -166.925781 32.96875 -166.859375 33.40625 -166.578125 C 33.6875 -166.859375 34.007812 -166.960938 34.375 -166.890625 C 34.738281 -166.816406 35.132812 -166.710938 35.5625 -166.578125 C 36.726562 -166.578125 37.816406 -166.753906 38.828125 -167.109375 C 39.835938 -167.472656 40.921875 -167.507812 42.078125 -167.21875 C 42.648438 -167.507812 43.296875 -167.65625 44.015625 -167.65625 C 44.742188 -167.65625 45.398438 -167.582031 45.984375 -167.4375 C 46.703125 -167.875 47.421875 -168.019531 48.140625 -167.875 C 48.867188 -167.726562 49.523438 -167.726562 50.109375 -167.875 C 50.390625 -168.019531 50.710938 -168.164062 51.078125 -168.3125 C 51.441406 -168.457031 51.835938 -168.53125 52.265625 -168.53125 C 52.554688 -168.53125 52.738281 -168.492188 52.8125 -168.421875 C 52.882812 -168.347656 52.921875 -168.3125 52.921875 -168.3125 C 53.359375 -168.457031 53.753906 -168.597656 54.109375 -168.734375 C 54.472656 -168.878906 54.875 -168.953125 55.3125 -168.953125 C 55.59375 -168.953125 55.914062 -168.914062 56.28125 -168.84375 C 56.644531 -168.769531 57.039062 -168.878906 57.46875 -169.171875 C 58.488281 -169.023438 59.613281 -169.132812 60.84375 -169.5 C 62.070312 -169.863281 63.265625 -170.046875 64.421875 -170.046875 C 64.847656 -170.191406 65.28125 -170.332031 65.71875 -170.46875 C 66.15625 -170.613281 66.660156 -170.757812 67.234375 -170.90625 C 67.960938 -171.050781 68.722656 -171.195312 69.515625 -171.34375 C 70.304688 -171.488281 71.132812 -171.632812 72 -171.78125 C 72.875 -171.78125 73.707031 -171.78125 74.5 -171.78125 C 75.289062 -171.78125 76.050781 -171.707031 76.78125 -171.5625 C 78.375 -171.269531 79.851562 -170.507812 81.21875 -169.28125 C 82.59375 -168.050781 84.003906 -166.859375 85.453125 -165.703125 C 85.597656 -164.835938 85.816406 -164.1875 86.109375 -163.75 C 86.398438 -163.320312 86.6875 -162.890625 86.96875 -162.453125 C 86.820312 -161.722656 86.894531 -161.175781 87.1875 -160.8125 C 87.476562 -160.457031 87.476562 -159.992188 87.1875 -159.421875 C 87.476562 -159.273438 87.695312 -159.128906 87.84375 -158.984375 C 87.988281 -158.835938 88.132812 -158.617188 88.28125 -158.328125 C 88.132812 -158.035156 88.164062 -157.707031 88.375 -157.34375 C 88.59375 -156.988281 88.5625 -156.664062 88.28125 -156.375 C 88.28125 -156.226562 88.3125 -156.082031 88.375 -155.9375 C 88.445312 -155.800781 88.484375 -155.660156 88.484375 -155.515625 C 88.773438 -155.367188 88.957031 -155.003906 89.03125 -154.421875 C 89.101562 -153.847656 89.066406 -153.34375 88.921875 -152.90625 C 88.921875 -152.90625 88.921875 -152.867188 88.921875 -152.796875 C 88.921875 -152.722656 88.992188 -152.6875 89.140625 -152.6875 C 88.992188 -152.257812 88.921875 -151.789062 88.921875 -151.28125 C 88.921875 -150.769531 88.921875 -150.375 88.921875 -150.09375 C 88.921875 -149.507812 88.882812 -148.925781 88.8125 -148.34375 C 88.738281 -147.769531 88.628906 -147.125 88.484375 -146.40625 L 87.84375 -142.9375 C 87.695312 -141.78125 87.585938 -140.65625 87.515625 -139.5625 C 87.441406 -138.476562 87.332031 -137.285156 87.1875 -135.984375 Z M 85.890625 -139.25 C 86.179688 -139.53125 86.179688 -139.671875 85.890625 -139.671875 C 85.597656 -139.671875 85.523438 -139.742188 85.671875 -139.890625 C 85.671875 -140.179688 85.742188 -140.4375 85.890625 -140.65625 C 86.035156 -140.875 86.109375 -141.054688 86.109375 -141.203125 C 86.253906 -142.066406 86.363281 -142.929688 86.4375 -143.796875 C 86.507812 -144.660156 86.546875 -145.53125 86.546875 -146.40625 C 86.679688 -147.125 86.75 -147.804688 86.75 -148.453125 C 86.75 -149.109375 86.820312 -149.796875 86.96875 -150.515625 C 86.96875 -150.953125 87.039062 -151.316406 87.1875 -151.609375 C 86.894531 -151.023438 86.679688 -150.660156 86.546875 -150.515625 L 86.96875 -150.515625 C 86.820312 -150.378906 86.710938 -150.273438 86.640625 -150.203125 C 86.578125 -150.128906 86.546875 -150.09375 86.546875 -150.09375 L 86.109375 -147.046875 C 85.960938 -146.328125 85.851562 -145.53125 85.78125 -144.65625 C 85.707031 -143.789062 85.523438 -143 85.234375 -142.28125 L 84.59375 -140.984375 C 84.59375 -140.984375 84.625 -140.984375 84.6875 -140.984375 C 84.757812 -140.984375 84.796875 -140.910156 84.796875 -140.765625 C 84.660156 -138.453125 84.484375 -136.171875 84.265625 -133.921875 C 84.046875 -131.679688 83.789062 -129.476562 83.5 -127.3125 C 83.644531 -126.882812 83.71875 -126.414062 83.71875 -125.90625 C 83.71875 -125.394531 83.789062 -124.851562 83.9375 -124.28125 C 83.789062 -124.570312 83.71875 -124.929688 83.71875 -125.359375 C 83.71875 -125.796875 83.644531 -126.234375 83.5 -126.671875 L 82.859375 -121.234375 C 82.859375 -121.097656 82.859375 -121.03125 82.859375 -121.03125 C 82.859375 -120.300781 82.890625 -119.539062 82.953125 -118.75 C 83.023438 -117.957031 83.0625 -117.195312 83.0625 -116.46875 L 83.0625 -116.25 C 83.207031 -117.257812 83.316406 -118.234375 83.390625 -119.171875 C 83.460938 -120.117188 83.570312 -121.097656 83.71875 -122.109375 C 84.007812 -125.003906 84.332031 -127.859375 84.6875 -130.671875 C 85.050781 -133.492188 85.453125 -136.351562 85.890625 -139.25 Z M 83.9375 -129.046875 C 84.226562 -129.046875 84.335938 -128.863281 84.265625 -128.5 C 84.191406 -128.144531 84.226562 -127.894531 84.375 -127.75 C 84.226562 -127.601562 84.15625 -127.742188 84.15625 -128.171875 C 84.15625 -128.609375 84.082031 -128.898438 83.9375 -129.046875 Z M 83.71875 -75.046875 C 83.863281 -75.046875 83.9375 -74.46875 83.9375 -73.3125 C 83.5 -73.3125 83.425781 -73.890625 83.71875 -75.046875 Z M 97.8125 -27.109375 C 97.53125 -27.109375 97.390625 -27.253906 97.390625 -27.546875 C 97.671875 -27.835938 97.882812 -27.984375 98.03125 -27.984375 C 98.175781 -27.835938 98.25 -27.617188 98.25 -27.328125 C 98.25 -27.179688 98.101562 -27.109375 97.8125 -27.109375 Z M 86.328125 -19.09375 C 86.472656 -19.226562 86.757812 -19.296875 87.1875 -19.296875 C 87.625 -19.015625 87.769531 -18.726562 87.625 -18.4375 C 87.476562 -18 87.1875 -18 86.75 -18.4375 C 86.46875 -18.4375 86.328125 -18.65625 86.328125 -19.09375 Z M 98.6875 -17.140625 C 99.40625 -17.140625 99.765625 -16.773438 99.765625 -16.046875 C 99.472656 -15.328125 98.96875 -14.96875 98.25 -14.96875 C 97.8125 -15.394531 97.664062 -15.898438 97.8125 -16.484375 C 98.101562 -17.054688 98.394531 -17.273438 98.6875 -17.140625 Z M 66.578125 -13.875 C 66.148438 -13.59375 65.828125 -13.304688 65.609375 -13.015625 C 65.390625 -12.722656 65.132812 -12.429688 64.84375 -12.140625 C 64.84375 -12.285156 65.132812 -12.648438 65.71875 -13.234375 C 66.007812 -13.953125 66.296875 -14.164062 66.578125 -13.875 Z M 110.390625 -9.984375 C 110.535156 -9.984375 110.609375 -9.691406 110.609375 -9.109375 C 110.609375 -9.109375 110.46875 -8.960938 110.1875 -8.671875 C 110.1875 -8.242188 109.96875 -8.097656 109.53125 -8.234375 C 109.382812 -8.378906 109.164062 -8.671875 108.875 -9.109375 C 108.875 -9.546875 109.019531 -9.765625 109.3125 -9.765625 C 109.457031 -9.910156 109.601562 -9.984375 109.75 -9.984375 C 110.039062 -10.265625 110.253906 -10.265625 110.390625 -9.984375 Z M 96.078125 3.25 L 96.953125 2.609375 C 97.816406 2.316406 98.25 2.53125 98.25 3.25 C 98.539062 3.832031 98.539062 4.269531 98.25 4.5625 C 97.957031 5.28125 97.453125 5.566406 96.734375 5.421875 C 96.148438 5.128906 95.789062 4.695312 95.65625 4.125 C 95.65625 3.832031 95.796875 3.539062 96.078125 3.25 Z M 73.09375 9.328125 C 74.6875 10.046875 75.191406 11.203125 74.609375 12.796875 C 74.460938 13.378906 74.316406 13.847656 74.171875 14.203125 C 74.023438 14.566406 73.8125 14.96875 73.53125 15.40625 C 73.382812 15.832031 73.09375 16.082031 72.65625 16.15625 C 72.21875 16.226562 71.859375 16.335938 71.578125 16.484375 C 71.285156 16.628906 70.921875 16.703125 70.484375 16.703125 C 70.054688 16.703125 69.695312 16.847656 69.40625 17.140625 C 68.820312 16.847656 68.273438 16.664062 67.765625 16.59375 C 67.265625 16.519531 66.867188 16.410156 66.578125 16.265625 C 65.710938 15.398438 65.132812 14.75 64.84375 14.3125 C 64.84375 14.3125 64.84375 13.953125 64.84375 13.234375 C 64.84375 12.648438 64.628906 12.144531 64.203125 11.71875 C 63.472656 11.425781 63.472656 11.0625 64.203125 10.625 C 64.628906 10.625 64.84375 10.550781 64.84375 10.40625 C 65.28125 9.976562 65.5 9.546875 65.5 9.109375 C 65.5 8.242188 65.929688 7.664062 66.796875 7.375 C 67.234375 7.226562 67.664062 7.15625 68.09375 7.15625 C 68.53125 7.15625 68.96875 7.082031 69.40625 6.9375 C 69.695312 6.9375 69.984375 7.007812 70.265625 7.15625 C 70.703125 7.59375 71.210938 7.664062 71.796875 7.375 C 72.222656 7.375 72.4375 7.59375 72.4375 8.03125 C 72.582031 8.164062 72.726562 8.34375 72.875 8.5625 C 73.019531 8.78125 73.09375 9.035156 73.09375 9.328125 Z M 88.0625 14.09375 C 88.0625 14.09375 88.0625 13.878906 88.0625 13.453125 C 88.34375 13.453125 88.554688 13.523438 88.703125 13.671875 L 88.703125 14.09375 C 88.554688 14.09375 88.445312 14.09375 88.375 14.09375 C 88.3125 14.09375 88.207031 14.09375 88.0625 14.09375 Z M 33.828125 24.515625 L 33.828125 24.71875 C 33.828125 24.863281 33.757812 24.9375 33.625 24.9375 C 33.625 24.65625 33.625 24.515625 33.625 24.515625 C 33.625 24.515625 33.625 24.476562 33.625 24.40625 C 33.625 24.332031 33.691406 24.367188 33.828125 24.515625 Z M 17.5625 26.890625 L 19.515625 25.59375 C 19.660156 25.882812 19.878906 26.171875 20.171875 26.453125 C 20.890625 27.328125 21.109375 28.34375 20.828125 29.5 C 20.679688 29.789062 20.5 30.003906 20.28125 30.140625 C 20.0625 30.285156 19.804688 30.429688 19.515625 30.578125 C 18.941406 30.722656 18.289062 30.613281 17.5625 30.25 C 16.84375 29.894531 16.484375 29.351562 16.484375 28.625 C 16.484375 28.476562 16.625 28.1875 16.90625 27.75 C 17.195312 27.320312 17.414062 27.035156 17.5625 26.890625 Z M 88.921875 27.984375 C 88.921875 28.128906 88.921875 28.414062 88.921875 28.84375 C 88.921875 29.28125 88.992188 29.644531 89.140625 29.9375 C 89.429688 30.070312 89.359375 30.359375 88.921875 30.796875 L 88.0625 32.53125 C 87.769531 33.113281 87.40625 32.96875 86.96875 32.09375 C 86.6875 31.8125 86.6875 31.523438 86.96875 31.234375 C 86.96875 30.941406 86.859375 30.757812 86.640625 30.6875 C 86.429688 30.613281 86.398438 30.503906 86.546875 30.359375 C 86.546875 30.210938 86.507812 30.03125 86.4375 29.8125 C 86.363281 29.601562 86.328125 29.425781 86.328125 29.28125 C 86.328125 28.695312 86.539062 28.335938 86.96875 28.203125 C 87.113281 27.910156 87.1875 27.546875 87.1875 27.109375 C 87.476562 26.960938 87.765625 27.035156 88.046875 27.328125 C 88.335938 27.617188 88.628906 27.691406 88.921875 27.546875 C 88.921875 27.546875 88.921875 27.691406 88.921875 27.984375 Z M 65.0625 34.046875 C 65.0625 34.484375 64.921875 34.554688 64.640625 34.265625 C 64.492188 34.265625 64.421875 33.976562 64.421875 33.40625 C 64.566406 33.257812 64.671875 33.1875 64.734375 33.1875 C 64.804688 33.1875 64.84375 33.1875 64.84375 33.1875 C 64.988281 33.1875 65.0625 33.472656 65.0625 34.046875 Z M 75.484375 57.90625 C 76.640625 58.34375 77.070312 59.066406 76.78125 60.078125 C 76.78125 61.085938 76.054688 61.445312 74.609375 61.15625 C 73.890625 60.582031 73.601562 59.9375 73.75 59.21875 C 74.175781 58.050781 74.753906 57.613281 75.484375 57.90625 Z M 41.640625 61.15625 C 42.078125 61.445312 42.222656 61.664062 42.078125 61.8125 L 41.203125 61.8125 C 41.066406 61.8125 41 61.59375 41 61.15625 C 41 61.15625 41.210938 61.15625 41.640625 61.15625 Z M 31.453125 61.8125 L 31.453125 61.375 C 31.453125 61.09375 31.597656 61.09375 31.890625 61.375 L 32.09375 61.59375 C 31.957031 61.738281 31.742188 61.8125 31.453125 61.8125 Z M 64.640625 63.984375 C 64.921875 63.691406 65.0625 63.546875 65.0625 63.546875 C 65.0625 63.546875 65.0625 63.835938 65.0625 64.421875 C 64.78125 64.128906 64.640625 63.984375 64.640625 63.984375 Z M 33.40625 64.203125 C 33.976562 64.054688 34.554688 64.34375 35.140625 65.0625 C 35.285156 65.207031 35.460938 65.425781 35.671875 65.71875 C 35.890625 66.007812 35.851562 66.296875 35.5625 66.578125 C 35.425781 66.722656 34.992188 66.65625 34.265625 66.375 C 33.546875 66.375 33.039062 66.007812 32.75 65.28125 C 32.457031 64.5625 32.675781 64.203125 33.40625 64.203125 Z M 33.40625 64.203125 "/></g></g><g style="fill:#000000;fill-opacity:1;"><g transform="translate(165.432922, 271.09463)"><path style="stroke:none" d="M 2.8125 -239.875 C 0.9375 -239.300781 0 -239.878906 0 -241.609375 C -0.289062 -242.765625 0 -243.78125 0.875 -244.65625 C 1.738281 -245.8125 2.894531 -246.097656 4.34375 -245.515625 C 5.78125 -244.941406 6.5 -243.929688 6.5 -242.484375 C 6.5 -241.328125 5.921875 -240.675781 4.765625 -240.53125 C 4.484375 -240.382812 4.195312 -240.273438 3.90625 -240.203125 C 3.613281 -240.128906 3.25 -240.019531 2.8125 -239.875 Z M -28.40625 -220.140625 C -27.832031 -219.847656 -27.546875 -219.195312 -27.546875 -218.1875 C -27.835938 -217.320312 -28.195312 -216.816406 -28.625 -216.671875 C -28.625 -216.671875 -28.988281 -216.523438 -29.71875 -216.234375 C -30.582031 -215.953125 -31.160156 -216.171875 -31.453125 -216.890625 C -31.742188 -217.328125 -31.671875 -217.976562 -31.234375 -218.84375 C -30.941406 -219.132812 -30.796875 -219.421875 -30.796875 -219.703125 C -30.503906 -219.992188 -30.175781 -220.210938 -29.8125 -220.359375 C -29.457031 -220.503906 -28.988281 -220.429688 -28.40625 -220.140625 Z M 23.859375 -201.0625 C 23.859375 -201.34375 23.785156 -201.628906 23.640625 -201.921875 C 23.492188 -202.210938 23.347656 -202.429688 23.203125 -202.578125 C 21.753906 -204.023438 21.394531 -205.6875 22.125 -207.5625 C 22.414062 -208.289062 22.738281 -208.90625 23.09375 -209.40625 C 23.457031 -209.914062 23.785156 -210.3125 24.078125 -210.59375 C 24.367188 -211.03125 24.800781 -211.25 25.375 -211.25 C 25.957031 -211.25 26.460938 -211.320312 26.890625 -211.46875 C 27.328125 -211.613281 27.757812 -211.6875 28.1875 -211.6875 C 28.625 -211.6875 28.988281 -211.757812 29.28125 -211.90625 L 29.71875 -211.90625 C 30.4375 -211.613281 31.082031 -211.359375 31.65625 -211.140625 C 32.238281 -210.921875 32.675781 -210.597656 32.96875 -210.171875 C 33.40625 -209.878906 33.726562 -209.441406 33.9375 -208.859375 C 34.15625 -208.285156 34.410156 -207.851562 34.703125 -207.5625 C 34.992188 -207.269531 34.992188 -206.765625 34.703125 -206.046875 C 34.703125 -205.898438 34.664062 -205.828125 34.59375 -205.828125 C 34.519531 -205.828125 34.484375 -205.828125 34.484375 -205.828125 C 34.191406 -204.960938 34.335938 -204.3125 34.921875 -203.875 C 35.210938 -203.582031 35.210938 -203.148438 34.921875 -202.578125 L 34.046875 -202.578125 C 33.328125 -202.140625 32.96875 -201.5625 32.96875 -200.84375 C 32.820312 -199.832031 32.171875 -199.328125 31.015625 -199.328125 C 30.429688 -199.179688 29.882812 -199.144531 29.375 -199.21875 C 28.875 -199.289062 28.335938 -199.328125 27.765625 -199.328125 C 27.179688 -199.328125 26.816406 -199.46875 26.671875 -199.75 C 26.097656 -200.332031 25.378906 -200.476562 24.515625 -200.1875 C 24.078125 -200.1875 23.859375 -200.476562 23.859375 -201.0625 Z M -8.234375 -196.5 C -8.816406 -196.789062 -9.285156 -197.296875 -9.640625 -198.015625 C -10.003906 -198.742188 -10.117188 -199.320312 -9.984375 -199.75 C -8.816406 -201.195312 -7.65625 -201.707031 -6.5 -201.28125 C -5.632812 -200.84375 -5.421875 -199.753906 -5.859375 -198.015625 C -6.429688 -196.710938 -7.222656 -196.207031 -8.234375 -196.5 Z M 127.3125 -187.171875 L 127.75 -187.171875 C 127.75 -186.742188 127.75 -186.3125 127.75 -185.875 C 127.75 -185.4375 127.53125 -185.078125 127.09375 -184.796875 C 127.09375 -185.078125 127.09375 -185.4375 127.09375 -185.875 C 127.09375 -186.3125 127.164062 -186.742188 127.3125 -187.171875 Z M 138.15625 -170.6875 C 138.738281 -170.113281 138.8125 -169.320312 138.375 -168.3125 C 137.9375 -167.582031 137.429688 -167.070312 136.859375 -166.78125 C 136.710938 -166.644531 136.675781 -166.503906 136.75 -166.359375 C 136.820312 -166.210938 136.929688 -166.140625 137.078125 -166.140625 C 136.785156 -165.847656 136.492188 -165.628906 136.203125 -165.484375 C 135.921875 -165.335938 135.632812 -165.191406 135.34375 -165.046875 C 135.34375 -164.617188 135.484375 -164.476562 135.765625 -164.625 C 136.054688 -164.769531 136.273438 -164.769531 136.421875 -164.625 L 133.390625 -162.234375 C 132.953125 -161.796875 132.476562 -161.320312 131.96875 -160.8125 C 131.46875 -160.3125 131 -159.914062 130.5625 -159.625 C 130.414062 -159.488281 130.414062 -159.382812 130.5625 -159.3125 C 130.707031 -159.238281 130.851562 -159.273438 131 -159.421875 C 129.550781 -157.828125 128.109375 -156.597656 126.671875 -155.734375 C 126.378906 -155.585938 125.976562 -155.441406 125.46875 -155.296875 C 124.96875 -155.148438 124.5 -154.929688 124.0625 -154.640625 C 123.625 -154.492188 122.828125 -154.132812 121.671875 -153.5625 C 120.660156 -153.269531 119.722656 -153.050781 118.859375 -152.90625 C 117.992188 -152.757812 117.125 -152.613281 116.25 -152.46875 L 110.609375 -151.171875 C 109.304688 -150.878906 108.039062 -150.625 106.8125 -150.40625 C 105.582031 -150.195312 104.316406 -149.945312 103.015625 -149.65625 C 101.859375 -149.363281 100.59375 -149.035156 99.21875 -148.671875 C 97.851562 -148.316406 96.59375 -147.992188 95.4375 -147.703125 C 94.132812 -147.554688 92.796875 -147.335938 91.421875 -147.046875 C 90.046875 -146.765625 88.78125 -146.476562 87.625 -146.1875 C 86.757812 -146.039062 85.890625 -145.859375 85.015625 -145.640625 C 84.148438 -145.421875 83.210938 -145.238281 82.203125 -145.09375 C 82.203125 -144.226562 82.164062 -143.394531 82.09375 -142.59375 C 82.019531 -141.800781 81.984375 -140.972656 81.984375 -140.109375 C 81.835938 -138.234375 81.726562 -136.425781 81.65625 -134.6875 C 81.582031 -132.957031 81.617188 -131.367188 81.765625 -129.921875 L 81.765625 -128.1875 C 82.054688 -126.738281 82.238281 -125.035156 82.3125 -123.078125 C 82.382812 -121.128906 82.492188 -119.21875 82.640625 -117.34375 C 82.640625 -116.039062 82.675781 -114.554688 82.75 -112.890625 C 82.820312 -111.222656 82.859375 -109.523438 82.859375 -107.796875 C 83.140625 -101.578125 83.425781 -94.925781 83.71875 -87.84375 C 84.007812 -80.757812 84.226562 -73.816406 84.375 -67.015625 C 84.519531 -57.328125 84.953125 -47.710938 85.671875 -38.171875 C 85.960938 -33.546875 86.179688 -29.023438 86.328125 -24.609375 C 86.472656 -20.203125 86.472656 -15.757812 86.328125 -11.28125 C 86.179688 -11.425781 86.109375 -11.425781 86.109375 -11.28125 C 86.109375 -11.132812 85.960938 -11.132812 85.671875 -11.28125 C 85.816406 -10.550781 85.742188 -9.929688 85.453125 -9.421875 C 85.160156 -8.921875 85.015625 -8.3125 85.015625 -7.59375 C 85.304688 -7.300781 85.488281 -7.265625 85.5625 -7.484375 C 85.632812 -7.703125 85.742188 -7.664062 85.890625 -7.375 C 85.890625 -7.226562 85.597656 -7.15625 85.015625 -7.15625 C 85.304688 -6.582031 85.234375 -6.113281 84.796875 -5.75 C 84.367188 -5.382812 84.226562 -4.769531 84.375 -3.90625 C 84.082031 -4.34375 83.828125 -4.085938 83.609375 -3.140625 C 83.390625 -2.203125 83.140625 -1.734375 82.859375 -1.734375 C 82.710938 -2.171875 82.707031 -2.316406 82.84375 -2.171875 C 82.988281 -2.023438 82.992188 -2.171875 82.859375 -2.609375 C 82.710938 -2.890625 82.601562 -2.8125 82.53125 -2.375 C 82.457031 -1.945312 82.273438 -1.734375 81.984375 -1.734375 C 81.984375 -2.023438 82.054688 -2.207031 82.203125 -2.28125 C 82.347656 -2.351562 82.347656 -2.53125 82.203125 -2.8125 C 82.203125 -2.675781 82.164062 -2.609375 82.09375 -2.609375 C 82.019531 -2.609375 81.984375 -2.460938 81.984375 -2.171875 C 81.835938 -2.171875 81.800781 -2.3125 81.875 -2.59375 C 81.945312 -2.882812 81.910156 -3.03125 81.765625 -3.03125 C 81.328125 -2.75 80.960938 -2.351562 80.671875 -1.84375 C 80.390625 -1.332031 79.890625 -1.148438 79.171875 -1.296875 C 79.304688 -1.296875 79.484375 -1.441406 79.703125 -1.734375 C 79.921875 -2.023438 79.882812 -2.382812 79.59375 -2.8125 C 79.738281 -2.53125 79.703125 -2.351562 79.484375 -2.28125 C 79.273438 -2.207031 79.171875 -2.171875 79.171875 -2.171875 C 78.734375 -1.734375 78.40625 -1.257812 78.1875 -0.75 C 77.96875 -0.25 77.570312 0.21875 77 0.65625 C 76.851562 0.65625 76.78125 0.4375 76.78125 0 C 76.488281 0.144531 76.234375 0.394531 76.015625 0.75 C 75.796875 1.113281 75.398438 1.367188 74.828125 1.515625 C 74.679688 1.222656 74.570312 1.039062 74.5 0.96875 C 74.425781 0.90625 74.460938 0.65625 74.609375 0.21875 C 73.890625 1.945312 72.953125 2.019531 71.796875 0.4375 C 71.796875 0.4375 71.796875 0.867188 71.796875 1.734375 C 71.648438 1.160156 71.539062 0.976562 71.46875 1.1875 C 71.394531 1.40625 71.359375 1.660156 71.359375 1.953125 C 70.921875 1.234375 70.921875 0.507812 71.359375 -0.21875 C 71.210938 -0.507812 71.066406 -0.472656 70.921875 -0.109375 C 70.773438 0.253906 70.628906 0.21875 70.484375 -0.21875 C 69.765625 0.507812 69.40625 1.234375 69.40625 1.953125 C 69.257812 1.660156 69.113281 1.476562 68.96875 1.40625 C 68.820312 1.332031 68.75 1.007812 68.75 0.4375 C 68.320312 0.582031 67.960938 1.085938 67.671875 1.953125 C 67.378906 1.234375 67.378906 0.550781 67.671875 -0.09375 C 67.960938 -0.75 67.890625 -1.441406 67.453125 -2.171875 C 67.304688 -1.441406 67.125 -0.820312 66.90625 -0.3125 C 66.6875 0.1875 66.507812 0.941406 66.375 1.953125 C 66.082031 1.953125 65.828125 1.988281 65.609375 2.0625 C 65.390625 2.132812 64.992188 2.097656 64.421875 1.953125 C 64.703125 1.660156 64.769531 1.441406 64.625 1.296875 C 64.488281 1.148438 64.347656 0.863281 64.203125 0.4375 C 64.054688 0.863281 63.984375 1.332031 63.984375 1.84375 C 63.984375 2.351562 63.984375 2.820312 63.984375 3.25 C 63.398438 2.382812 63.035156 1.226562 62.890625 -0.21875 C 62.753906 -0.21875 62.6875 -0.0703125 62.6875 0.21875 C 62.539062 -0.0703125 62.535156 -0.328125 62.671875 -0.546875 C 62.816406 -0.765625 62.75 -0.941406 62.46875 -1.078125 C 62.320312 -0.941406 62.285156 -0.582031 62.359375 0 C 62.429688 0.582031 62.320312 1.015625 62.03125 1.296875 C 61.882812 1.015625 61.8125 0.691406 61.8125 0.328125 C 61.8125 -0.0351562 61.8125 -0.363281 61.8125 -0.65625 C 61.519531 -0.21875 61.046875 0.0703125 60.390625 0.21875 C 59.742188 0.363281 59.207031 0.722656 58.78125 1.296875 C 58.78125 0.578125 58.851562 0.109375 59 -0.109375 C 59.144531 -0.328125 59.285156 -0.796875 59.421875 -1.515625 C 58.992188 -1.085938 58.34375 -0.65625 57.46875 -0.21875 C 57.613281 -0.507812 57.757812 -0.691406 57.90625 -0.765625 C 58.050781 -0.835938 58.125 -0.941406 58.125 -1.078125 C 58.125 -0.941406 57.90625 -0.875 57.46875 -0.875 C 57.613281 -1.15625 57.757812 -1.441406 57.90625 -1.734375 C 58.050781 -2.023438 58.050781 -2.316406 57.90625 -2.609375 C 57.757812 -2.460938 57.648438 -2.425781 57.578125 -2.5 C 57.503906 -2.570312 57.398438 -2.460938 57.265625 -2.171875 L 57.265625 -2.8125 C 57.117188 -2.53125 57.007812 -2.457031 56.9375 -2.59375 C 56.863281 -2.738281 56.753906 -2.742188 56.609375 -2.609375 C 56.460938 -2.890625 56.460938 -3.03125 56.609375 -3.03125 C 56.753906 -3.03125 56.828125 -3.101562 56.828125 -3.25 C 56.679688 -3.394531 56.570312 -3.285156 56.5 -2.921875 C 56.425781 -2.566406 56.316406 -2.601562 56.171875 -3.03125 L 56.390625 -3.6875 C 56.097656 -3.6875 55.84375 -3.613281 55.625 -3.46875 C 55.414062 -3.320312 55.164062 -3.25 54.875 -3.25 C 55.3125 -4.257812 55.597656 -5.234375 55.734375 -6.171875 C 55.878906 -7.117188 56.023438 -8.023438 56.171875 -8.890625 C 56.171875 -9.179688 56.097656 -9.21875 55.953125 -9 C 55.804688 -8.78125 55.734375 -8.523438 55.734375 -8.234375 C 55.453125 -8.378906 55.414062 -8.5625 55.625 -8.78125 C 55.84375 -9 55.953125 -9.253906 55.953125 -9.546875 C 55.378906 -8.671875 54.875 -8.304688 54.4375 -8.453125 C 54.4375 -8.742188 54.472656 -8.925781 54.546875 -9 C 54.617188 -9.070312 54.65625 -9.253906 54.65625 -9.546875 C 54.21875 -9.546875 54 -9.472656 54 -9.328125 C 54 -10.046875 54.21875 -10.691406 54.65625 -11.265625 C 55.09375 -11.847656 55.09375 -12.503906 54.65625 -13.234375 C 55.238281 -14.816406 55.707031 -16.582031 56.0625 -18.53125 C 56.425781 -20.488281 56.535156 -22.410156 56.390625 -24.296875 C 56.242188 -24.296875 56.132812 -24.222656 56.0625 -24.078125 C 55.988281 -23.929688 55.953125 -24.003906 55.953125 -24.296875 C 54.941406 -22.554688 54.398438 -20.238281 54.328125 -17.34375 C 54.253906 -14.457031 53.859375 -12.21875 53.140625 -10.625 C 53.285156 -10.050781 53.320312 -9.546875 53.25 -9.109375 C 53.175781 -8.671875 53.066406 -8.164062 52.921875 -7.59375 C 53.210938 -7.59375 53.285156 -7.226562 53.140625 -6.5 C 53.710938 -6.5 54 -6.863281 54 -7.59375 L 54 -7.15625 C 54.144531 -7.15625 54.21875 -7.375 54.21875 -7.8125 C 54.363281 -7.8125 54.582031 -7.8125 54.875 -7.8125 C 55.164062 -7.8125 55.453125 -7.738281 55.734375 -7.59375 C 55.597656 -6.726562 55.457031 -6.039062 55.3125 -5.53125 C 55.164062 -5.019531 54.945312 -4.40625 54.65625 -3.6875 C 54.507812 -3.832031 54.253906 -3.832031 53.890625 -3.6875 C 53.535156 -3.539062 53.359375 -3.25 53.359375 -2.8125 C 53.210938 -3.25 53.285156 -3.972656 53.578125 -4.984375 C 53.285156 -4.835938 53.101562 -4.546875 53.03125 -4.109375 C 52.957031 -3.679688 52.773438 -3.320312 52.484375 -3.03125 C 52.335938 -3.320312 52.375 -3.679688 52.59375 -4.109375 C 52.8125 -4.546875 52.921875 -5.054688 52.921875 -5.640625 C 52.628906 -5.492188 52.300781 -5.09375 51.9375 -4.4375 C 51.582031 -3.789062 51.257812 -3.320312 50.96875 -3.03125 C 50.820312 -3.320312 50.820312 -3.648438 50.96875 -4.015625 C 51.113281 -4.378906 51.257812 -4.628906 51.40625 -4.765625 C 51.113281 -4.484375 51.039062 -4.703125 51.1875 -5.421875 C 51.039062 -5.566406 50.785156 -5.53125 50.421875 -5.3125 C 50.066406 -5.09375 49.816406 -4.910156 49.671875 -4.765625 C 49.523438 -5.054688 49.59375 -5.273438 49.875 -5.421875 C 50.164062 -5.566406 50.242188 -5.785156 50.109375 -6.078125 C 49.960938 -6.078125 49.890625 -6.078125 49.890625 -6.078125 C 49.742188 -6.078125 49.671875 -6.003906 49.671875 -5.859375 C 49.671875 -5.710938 49.597656 -5.566406 49.453125 -5.421875 C 49.160156 -5.859375 49.085938 -6.582031 49.234375 -7.59375 C 48.941406 -7.882812 48.796875 -7.59375 48.796875 -6.71875 C 48.796875 -7.15625 48.867188 -7.734375 49.015625 -8.453125 C 49.160156 -9.179688 49.304688 -9.832031 49.453125 -10.40625 C 49.453125 -10.40625 49.453125 -10.265625 49.453125 -9.984375 C 49.742188 -9.984375 49.890625 -10.050781 49.890625 -10.1875 C 49.890625 -10.332031 49.960938 -10.476562 50.109375 -10.625 C 49.816406 -10.914062 49.671875 -10.988281 49.671875 -10.84375 C 49.523438 -11.28125 49.523438 -11.601562 49.671875 -11.8125 C 49.816406 -12.03125 49.890625 -12.285156 49.890625 -12.578125 C 50.316406 -12.429688 50.640625 -12.753906 50.859375 -13.546875 C 51.078125 -14.347656 51.1875 -14.96875 51.1875 -15.40625 C 51.039062 -15.257812 50.820312 -15.003906 50.53125 -14.640625 C 50.25 -14.273438 49.960938 -13.878906 49.671875 -13.453125 C 49.523438 -13.734375 49.5625 -14.09375 49.78125 -14.53125 C 50 -14.96875 50.175781 -15.257812 50.3125 -15.40625 C 49.882812 -15.257812 49.597656 -14.859375 49.453125 -14.203125 C 49.304688 -13.554688 49.085938 -13.085938 48.796875 -12.796875 C 48.941406 -12.359375 48.976562 -11.847656 48.90625 -11.265625 C 48.832031 -10.691406 48.867188 -10.265625 49.015625 -9.984375 C 49.015625 -9.253906 48.867188 -8.601562 48.578125 -8.03125 C 48.296875 -8.457031 48.15625 -8.742188 48.15625 -8.890625 C 47.28125 -8.597656 46.769531 -9.03125 46.625 -10.1875 C 46.488281 -11.34375 46.421875 -12.429688 46.421875 -13.453125 C 46.421875 -14.023438 46.347656 -14.3125 46.203125 -14.3125 C 46.484375 -15.039062 46.585938 -15.765625 46.515625 -16.484375 C 46.453125 -17.203125 46.421875 -17.925781 46.421875 -18.65625 C 46.554688 -19.664062 46.625 -20.710938 46.625 -21.796875 C 46.625 -22.878906 46.695312 -23.925781 46.84375 -24.9375 L 47.5 -31.015625 C 47.644531 -33.179688 47.753906 -35.128906 47.828125 -36.859375 C 47.898438 -38.597656 48.007812 -40.625 48.15625 -42.9375 L 48.796875 -58.125 C 49.085938 -62.46875 49.378906 -66.878906 49.671875 -71.359375 C 49.960938 -75.835938 50.175781 -80.390625 50.3125 -85.015625 C 50.3125 -86.035156 50.347656 -87.125 50.421875 -88.28125 C 50.492188 -89.4375 50.601562 -90.519531 50.75 -91.53125 C 50.75 -92.6875 50.75 -93.804688 50.75 -94.890625 C 50.75 -95.972656 50.820312 -97.019531 50.96875 -98.03125 L 50.96875 -104.765625 C 50.96875 -105.921875 50.96875 -107.003906 50.96875 -108.015625 C 50.96875 -109.023438 50.894531 -110.035156 50.75 -111.046875 C 50.601562 -115.242188 50.421875 -119.65625 50.203125 -124.28125 C 49.992188 -128.90625 49.597656 -133.382812 49.015625 -137.71875 C 49.015625 -137.71875 48.941406 -137.71875 48.796875 -137.71875 C 48.222656 -137.144531 47.644531 -136.894531 47.0625 -136.96875 C 46.488281 -137.039062 45.835938 -136.929688 45.109375 -136.640625 C 44.679688 -136.203125 44.394531 -135.984375 44.25 -135.984375 C 44.25 -135.984375 44.03125 -135.984375 43.59375 -135.984375 C 43.445312 -135.984375 43.335938 -135.945312 43.265625 -135.875 C 43.191406 -135.8125 43.082031 -135.78125 42.9375 -135.78125 C 42.800781 -135.78125 42.625 -135.8125 42.40625 -135.875 C 42.1875 -135.945312 41.929688 -135.984375 41.640625 -135.984375 C 41.492188 -135.984375 41.382812 -135.910156 41.3125 -135.765625 C 41.238281 -135.628906 41.0625 -135.5625 40.78125 -135.5625 C 40.488281 -135.414062 40.234375 -135.414062 40.015625 -135.5625 C 39.796875 -135.707031 39.613281 -135.78125 39.46875 -135.78125 C 39.039062 -135.632812 38.644531 -135.414062 38.28125 -135.125 C 37.914062 -134.832031 37.375 -134.90625 36.65625 -135.34375 C 36.363281 -135.195312 35.960938 -135.085938 35.453125 -135.015625 C 34.953125 -134.941406 34.484375 -134.757812 34.046875 -134.46875 C 33.898438 -134.320312 33.71875 -134.140625 33.5 -133.921875 C 33.289062 -133.710938 33.039062 -133.609375 32.75 -133.609375 L 31.890625 -133.609375 C 31.304688 -133.609375 30.722656 -133.425781 30.140625 -133.0625 C 29.566406 -132.695312 28.988281 -132.585938 28.40625 -132.734375 C 27.539062 -132.304688 26.53125 -132.125 25.375 -132.1875 C 24.21875 -132.257812 23.421875 -131.789062 22.984375 -130.78125 C 22.984375 -129.914062 22.769531 -129.484375 22.34375 -129.484375 C 22.195312 -129.335938 22.050781 -129.335938 21.90625 -129.484375 C 21.757812 -129.628906 21.539062 -129.773438 21.25 -129.921875 C 20.820312 -129.921875 20.242188 -129.921875 19.515625 -129.921875 C 18.796875 -129.921875 18.21875 -129.773438 17.78125 -129.484375 C 17.632812 -129.335938 17.523438 -129.117188 17.453125 -128.828125 C 17.378906 -128.546875 17.203125 -128.332031 16.921875 -128.1875 C 16.773438 -128.039062 16.445312 -128.144531 15.9375 -128.5 C 15.4375 -128.863281 14.96875 -128.898438 14.53125 -128.609375 C 14.382812 -128.472656 14.273438 -128.296875 14.203125 -128.078125 C 14.128906 -127.859375 13.953125 -127.75 13.671875 -127.75 C 12.796875 -127.457031 12.210938 -127.890625 11.921875 -129.046875 C 11.785156 -129.046875 11.71875 -128.972656 11.71875 -128.828125 C 11.71875 -128.679688 11.644531 -128.609375 11.5 -128.609375 C 10.914062 -129.335938 10.15625 -129.738281 9.21875 -129.8125 C 8.28125 -129.882812 7.445312 -129.847656 6.71875 -129.703125 C 6.71875 -129.703125 6.503906 -129.703125 6.078125 -129.703125 C 5.066406 -129.847656 4.085938 -130.207031 3.140625 -130.78125 C 2.203125 -131.363281 1.300781 -131.941406 0.4375 -132.515625 C 0.144531 -132.804688 0 -133.023438 0 -133.171875 C -0.4375 -133.460938 -0.796875 -133.785156 -1.078125 -134.140625 C -1.367188 -134.503906 -1.660156 -134.757812 -1.953125 -134.90625 C -2.097656 -135.195312 -2.273438 -135.414062 -2.484375 -135.5625 C -2.703125 -135.707031 -2.882812 -135.992188 -3.03125 -136.421875 C -3.175781 -136.859375 -3.6875 -137.507812 -4.5625 -138.375 C -4.84375 -138.8125 -5.128906 -139.207031 -5.421875 -139.5625 C -5.710938 -139.925781 -5.929688 -140.179688 -6.078125 -140.328125 C -6.359375 -141.046875 -6.570312 -141.726562 -6.71875 -142.375 C -6.863281 -143.03125 -7.15625 -143.648438 -7.59375 -144.234375 C -7.738281 -145.390625 -7.878906 -146.507812 -8.015625 -147.59375 C -8.160156 -148.675781 -8.378906 -149.941406 -8.671875 -151.390625 C -8.671875 -151.535156 -8.707031 -151.644531 -8.78125 -151.71875 C -8.851562 -151.789062 -8.890625 -151.898438 -8.890625 -152.046875 C -8.597656 -152.617188 -8.488281 -153.335938 -8.5625 -154.203125 C -8.632812 -155.078125 -8.597656 -155.800781 -8.453125 -156.375 C -8.453125 -156.664062 -8.414062 -156.882812 -8.34375 -157.03125 C -8.269531 -157.175781 -8.234375 -157.320312 -8.234375 -157.46875 C -7.953125 -157.75 -7.8125 -158.175781 -7.8125 -158.75 C -7.8125 -159.332031 -7.8125 -159.769531 -7.8125 -160.0625 C -6.65625 -160.789062 -5.785156 -161.835938 -5.203125 -163.203125 C -4.628906 -164.578125 -3.90625 -165.769531 -3.03125 -166.78125 L -2.609375 -166.78125 C -2.316406 -167.21875 -1.914062 -167.617188 -1.40625 -167.984375 C -0.90625 -168.347656 -0.507812 -168.816406 -0.21875 -169.390625 C 0.0703125 -169.828125 0.503906 -170.113281 1.078125 -170.25 C 1.660156 -170.394531 2.171875 -170.613281 2.609375 -170.90625 C 2.890625 -171.050781 3.101562 -171.160156 3.25 -171.234375 C 3.394531 -171.304688 3.613281 -171.414062 3.90625 -171.5625 C 4.34375 -171.707031 4.738281 -171.882812 5.09375 -172.09375 C 5.457031 -172.3125 5.925781 -172.492188 6.5 -172.640625 C 6.9375 -172.929688 7.367188 -173.003906 7.796875 -172.859375 C 8.234375 -172.710938 8.671875 -172.710938 9.109375 -172.859375 C 9.398438 -172.859375 9.617188 -172.929688 9.765625 -173.078125 C 9.910156 -173.222656 10.050781 -173.367188 10.1875 -173.515625 C 10.769531 -173.515625 11.203125 -173.367188 11.484375 -173.078125 C 11.773438 -172.785156 12.140625 -172.566406 12.578125 -172.421875 C 13.304688 -172.710938 13.8125 -172.785156 14.09375 -172.640625 C 14.382812 -172.210938 14.566406 -171.851562 14.640625 -171.5625 C 14.710938 -171.269531 14.894531 -170.976562 15.1875 -170.6875 C 15.90625 -170.539062 16.410156 -171.007812 16.703125 -172.09375 C 16.992188 -173.1875 17.425781 -173.082031 18 -171.78125 C 18.582031 -171.195312 19.34375 -171.015625 20.28125 -171.234375 C 21.21875 -171.453125 21.976562 -171.5625 22.5625 -171.5625 C 23.132812 -171.5625 23.671875 -171.523438 24.171875 -171.453125 C 24.679688 -171.378906 25.226562 -171.34375 25.8125 -171.34375 C 26.238281 -171.488281 26.707031 -171.632812 27.21875 -171.78125 C 27.726562 -171.925781 28.195312 -171.851562 28.625 -171.5625 C 28.914062 -171.851562 29.273438 -171.925781 29.703125 -171.78125 C 30.140625 -171.632812 30.648438 -171.5625 31.234375 -171.5625 C 32.390625 -171.5625 33.546875 -171.738281 34.703125 -172.09375 C 35.859375 -172.457031 37.015625 -172.566406 38.171875 -172.421875 C 38.753906 -172.710938 39.476562 -172.820312 40.34375 -172.75 C 41.207031 -172.675781 41.929688 -172.640625 42.515625 -172.640625 C 43.234375 -172.929688 43.988281 -173.003906 44.78125 -172.859375 C 45.582031 -172.710938 46.269531 -172.710938 46.84375 -172.859375 C 47.28125 -173.003906 47.710938 -173.148438 48.140625 -173.296875 C 48.578125 -173.441406 48.941406 -173.515625 49.234375 -173.515625 L 50.109375 -173.515625 C 50.679688 -173.515625 51.113281 -173.65625 51.40625 -173.9375 C 51.695312 -174.226562 52.054688 -174.375 52.484375 -174.375 C 52.921875 -174.375 53.316406 -174.265625 53.671875 -174.046875 C 54.035156 -173.835938 54.4375 -173.945312 54.875 -174.375 C 56.03125 -174.226562 57.332031 -174.410156 58.78125 -174.921875 C 60.226562 -175.429688 61.671875 -175.613281 63.109375 -175.46875 C 63.253906 -175.46875 63.328125 -175.429688 63.328125 -175.359375 C 63.328125 -175.285156 63.398438 -175.25 63.546875 -175.25 C 64.554688 -175.25 65.421875 -175.425781 66.140625 -175.78125 C 66.867188 -176.144531 67.664062 -176.179688 68.53125 -175.890625 C 68.820312 -176.035156 69.113281 -176.144531 69.40625 -176.21875 C 69.695312 -176.289062 70.054688 -176.328125 70.484375 -176.328125 C 71.640625 -176.765625 72.867188 -177.125 74.171875 -177.40625 C 75.472656 -177.695312 76.703125 -177.988281 77.859375 -178.28125 C 79.160156 -178.863281 80.460938 -179.332031 81.765625 -179.6875 C 83.066406 -180.050781 84.367188 -180.304688 85.671875 -180.453125 C 86.828125 -180.742188 88.09375 -181.066406 89.46875 -181.421875 C 90.84375 -181.785156 92.109375 -182.1875 93.265625 -182.625 C 94.710938 -182.914062 96.050781 -183.238281 97.28125 -183.59375 C 98.507812 -183.957031 99.84375 -184.285156 101.28125 -184.578125 C 102.007812 -184.859375 102.695312 -185.035156 103.34375 -185.109375 C 104 -185.179688 104.6875 -185.289062 105.40625 -185.4375 L 109.3125 -186.09375 C 110.757812 -186.382812 112.171875 -186.566406 113.546875 -186.640625 C 114.921875 -186.710938 116.328125 -186.675781 117.765625 -186.53125 C 119.210938 -186.382812 120.550781 -186.164062 121.78125 -185.875 C 123.007812 -185.582031 124.347656 -185.222656 125.796875 -184.796875 C 126.085938 -184.648438 126.410156 -184.503906 126.765625 -184.359375 C 127.128906 -184.210938 127.457031 -184.066406 127.75 -183.921875 L 129.484375 -182.84375 C 130.640625 -182.695312 131.363281 -182.40625 131.65625 -181.96875 L 133.390625 -180.890625 C 133.679688 -179.441406 134.617188 -178.359375 136.203125 -177.640625 C 136.054688 -176.765625 136.164062 -176.144531 136.53125 -175.78125 C 136.894531 -175.425781 136.929688 -174.957031 136.640625 -174.375 L 138.15625 -173.078125 C 138.007812 -172.785156 138.046875 -172.421875 138.265625 -171.984375 C 138.484375 -171.554688 138.445312 -171.125 138.15625 -170.6875 Z M -9.765625 -174.8125 C -9.035156 -174.664062 -8.742188 -174.160156 -8.890625 -173.296875 C -9.179688 -172.710938 -9.613281 -172.566406 -10.1875 -172.859375 C -10.625 -173.003906 -10.84375 -173.507812 -10.84375 -174.375 C -10.84375 -175.101562 -10.484375 -175.25 -9.765625 -174.8125 Z M 76.78125 -134.46875 C 76.925781 -135.34375 77 -136.390625 77 -137.609375 C 77 -138.835938 76.851562 -139.671875 76.5625 -140.109375 C 76.5625 -139.816406 76.488281 -139.742188 76.34375 -139.890625 C 76.195312 -140.035156 76.125 -140.179688 76.125 -140.328125 C 76.125 -140.472656 75.976562 -140.546875 75.6875 -140.546875 L 75.6875 -135.34375 C 76.125 -135.34375 76.488281 -135.050781 76.78125 -134.46875 Z M 50.96875 -34.265625 L 50.96875 -34.921875 C 50.96875 -40.554688 51.144531 -46.15625 51.5 -51.71875 C 51.863281 -57.289062 52.117188 -62.753906 52.265625 -68.109375 C 52.410156 -72.734375 52.445312 -77.285156 52.375 -81.765625 C 52.300781 -86.242188 52.265625 -90.800781 52.265625 -95.4375 C 52.265625 -92.976562 52.226562 -90.519531 52.15625 -88.0625 C 52.082031 -85.601562 52.046875 -83.144531 52.046875 -80.6875 C 51.910156 -78.375 51.804688 -76.023438 51.734375 -73.640625 C 51.660156 -71.253906 51.625 -68.898438 51.625 -66.578125 C 51.332031 -61.804688 50.96875 -56.960938 50.53125 -52.046875 C 50.101562 -47.128906 49.742188 -42.144531 49.453125 -37.09375 C 49.304688 -36.800781 49.378906 -36.691406 49.671875 -36.765625 C 49.960938 -36.835938 49.960938 -36.582031 49.671875 -36 C 49.671875 -35.707031 49.597656 -35.34375 49.453125 -34.90625 C 49.304688 -34.476562 49.234375 -34.050781 49.234375 -33.625 C 48.941406 -30.875 48.796875 -27.976562 48.796875 -24.9375 C 48.796875 -21.90625 48.648438 -18.941406 48.359375 -16.046875 C 48.648438 -17.203125 48.867188 -18.429688 49.015625 -19.734375 C 49.160156 -21.035156 49.304688 -22.335938 49.453125 -23.640625 C 49.742188 -25.234375 49.890625 -26.75 49.890625 -28.1875 C 49.890625 -29.632812 49.960938 -30.867188 50.109375 -31.890625 C 50.242188 -32.316406 50.382812 -32.710938 50.53125 -33.078125 C 50.675781 -33.441406 50.820312 -33.835938 50.96875 -34.265625 Z M 76.5625 -42.515625 L 76.5625 -35.140625 C 76.851562 -37.304688 76.851562 -39.765625 76.5625 -42.515625 Z M 76.5625 -34.265625 C 76.5625 -32.816406 76.5625 -30.9375 76.5625 -28.625 C 76.5625 -26.3125 76.632812 -24.289062 76.78125 -22.5625 C 76.78125 -24.4375 76.78125 -26.382812 76.78125 -28.40625 C 76.78125 -30.4375 76.707031 -32.390625 76.5625 -34.265625 Z M 52.703125 -15.1875 C 52.703125 -15.613281 52.703125 -15.828125 52.703125 -15.828125 C 52.554688 -15.828125 52.375 -15.679688 52.15625 -15.390625 C 51.945312 -15.109375 51.910156 -14.820312 52.046875 -14.53125 C 52.191406 -14.675781 52.300781 -14.859375 52.375 -15.078125 C 52.445312 -15.296875 52.554688 -15.332031 52.703125 -15.1875 Z M 56.390625 -3.6875 C 56.390625 -3.976562 56.460938 -4.300781 56.609375 -4.65625 C 56.753906 -5.019531 56.828125 -5.347656 56.828125 -5.640625 C 56.679688 -5.492188 56.5 -5.238281 56.28125 -4.875 C 56.0625 -4.519531 56.097656 -4.125 56.390625 -3.6875 Z M 68.109375 -3.6875 C 68.109375 -3.6875 68.144531 -3.832031 68.21875 -4.125 C 68.289062 -4.414062 68.253906 -4.5625 68.109375 -4.5625 C 67.960938 -4.125 67.925781 -3.648438 68 -3.140625 C 68.070312 -2.640625 68.109375 -2.820312 68.109375 -3.6875 Z M 80.03125 -1.515625 C 80.03125 -1.804688 80.140625 -2.0625 80.359375 -2.28125 C 80.578125 -2.5 80.6875 -2.75 80.6875 -3.03125 C 79.8125 -2.75 79.59375 -2.242188 80.03125 -1.515625 Z M 79.59375 -2.8125 Z M 79.59375 -2.8125 "/></g></g></g></svg>